<svg id="Group_793" data-name="Group 793" xmlns="http://www.w3.org/2000/svg" width="24" height="24" viewBox="0 0 24 24">
  <rect id="Rectangle_499" data-name="Rectangle 499" width="24" height="24" rx="12" transform="translate(0 0)" fill="#639"/>
  <g id="Group_832" data-name="Group 832" transform="translate(-320 -376)">
    <rect id="Rectangle_499-2" data-name="Rectangle 499" width="24" height="24" transform="translate(320 376)" fill="none"/>
    <g id="Group_790" data-name="Group 790" transform="translate(-2.064 -0.745)">
      <g id="Group_789" data-name="Group 789" transform="translate(327.313 384.547)">
        <rect id="Rectangle_443" data-name="Rectangle 443" width="11.177" height="11.177" fill="none"/>
        <g id="Group_742" data-name="Group 742" transform="translate(2.786 1.128)">
          <g id="Group_741" data-name="Group 741" transform="translate(0)">
            <path id="Path_8239" data-name="Path 8239" d="M165.463,130.063h-.548a2.589,2.589,0,0,0-.46-1.032h1.008a.516.516,0,0,0,0-1.032H160.49a.516.516,0,0,0,0,1.032h1.99a1.494,1.494,0,0,1,1.4,1.032h-3.39a.516.516,0,0,0,0,1.032h3.39a1.494,1.494,0,0,1-1.4,1.032h-1.99a.486.486,0,0,0-.19.039.51.51,0,0,0-.27.279.53.53,0,0,0,0,.394.5.5,0,0,0,.108.168l3.978,4.125a.486.486,0,0,0,.7,0,.53.53,0,0,0,0-.729l-3.13-3.246h.789a2.514,2.514,0,0,0,2.436-2.063h.548a.516.516,0,0,0,0-1.032Z" transform="translate(-159.992 -128)" fill="#fff"/>
          </g>
        </g>
      </g>
      <path id="Path_8245" data-name="Path 8245" d="M523.781,584a.417.417,0,0,1,.417.417v1.946h1.946a.417.417,0,0,1,0,.834H524.2v1.946a.417.417,0,1,1-.834,0V587.2h-1.946a.417.417,0,0,1,0-.834h1.946v-1.946A.417.417,0,0,1,523.781,584Z" transform="translate(-185.745 -203.234)" fill="#fff"/>
    </g>
  </g>
</svg>
